<svg width="760" height="86" viewBox="0 0 760 86" fill="none" xmlns="http://www.w3.org/2000/svg"><path fill-rule="evenodd" clip-rule="evenodd" d="M131.13 9.74L103.1 58.27H71.6l8.03-13.93H47.66l11.76 6.97-11.69 20.74h62.86l40.28-69.28h-31.8l12.06 6.97zM19.75 65.07l28.02-48.53h31.51l-8.04 13.93h32L91.46 23.5l11.69-20.73H40.3L0 72.05h31.82l-12.07-6.98z" fill="#0B0B45"/><path d="M218.49 41.5h-29.45V68H177.5V5.35h11.54v25.5h29.45V5.36h11.54V68H218.5V41.5zM244.36 68V5.35h48.24v10.56h-36.7v41h36.7V68h-48.24zm40-26.5h-22.64V30.87h22.64V41.5zM352.5 27c0 4.96-1.25 9.2-3.76 12.72-2.44 3.46-5.94 5.93-10.47 7.43l-.36.18L356.6 68h-15.83L325.1 48.76h-10.2V68h-11.54V5.35h24.52c5.07 0 9.45.9 13.15 2.69a19.57 19.57 0 018.5 7.6 21.66 21.66 0 012.96 11.37zm-11.55 0c0-2.62-.53-4.73-1.6-6.35-1.08-1.6-2.93-2.8-5.55-3.58-2.57-.77-6.18-1.16-10.84-1.16h-8.05v22.2h8.06c4.65 0 8.26-.4 10.83-1.17 2.62-.77 4.47-1.97 5.54-3.58 1.08-1.6 1.62-3.73 1.62-6.35zm25.52 41V5.35h48.24v10.56H378v41h36.7V68h-48.24zm40-26.5h-22.64V30.87h22.65V41.5zM424.59 68V5.35h11.55V68h-11.55zm32.05-20.4c2.26 2.8 4.5 4.98 6.71 6.53 2.2 1.49 5.13 2.6 8.77 3.3a20 20 0 004.57.46c3.28 0 6-.69 8.14-2.06a6.72 6.72 0 003.31-6.09c0-1.85-.62-3.3-1.88-4.38a11.19 11.19 0 00-4.11-2.42c-1.5-.48-3.35-.95-5.55-1.43l-2.24-.45a137.8 137.8 0 01-8.86-2.06 27.4 27.4 0 01-6.71-3.13 16.28 16.28 0 01-5.1-5.37 16.33 16.33 0 01-.54-15.22 17.47 17.47 0 014.74-6 18.4 18.4 0 017.88-4.02c2.8-.6 5.9-.9 9.3-.9 3.47 0 6.9.51 10.3 1.53 3.4 1.01 6.53 2.5 9.4 4.47 2.2 1.5 3.96 2.96 5.28 4.39l-8.6 7.43c-3.93-3.64-8.56-6-13.87-7.07a23.9 23.9 0 00-5.19-.54c-3.82 0-6.47 1.13-7.96 3.4a6.6 6.6 0 00-.99 3.31c0 1.85.75 3.34 2.24 4.48a19.4 19.4 0 005.1 2.6c2.09.65 4.83 1.36 8.23 2.14l2.5.63c3.59.83 6.66 1.88 9.23 3.13a18.62 18.62 0 016.53 5.01 13.25 13.25 0 012.42 4.57c.6 1.79.9 3.7.9 5.72 0 4.78-1.65 8.71-4.93 11.82a24.65 24.65 0 01-9.22 5.64 34.16 34.16 0 01-11.37 1.88 37.19 37.19 0 01-15.66-3.4 26.62 26.62 0 01-11.36-9.85l-.27-.45 8.86-7.6zm79.85-31.69V68h-11.55V15.91h-20.76V5.35h52.98v10.56h-20.67zM566 68V5.35h48.24v10.56h-36.7v41h36.7V68H566zm40-26.5h-22.64V30.87H606V41.5zm73.63 16.83a33.1 33.1 0 01-11.28 7.88 35.57 35.57 0 01-14.05 2.77c-6.2 0-11.87-1.37-17-4.11a31.9 31.9 0 01-12.26-11.46c-2.99-4.9-4.48-10.47-4.48-16.73 0-6.27 1.5-11.85 4.48-16.74A31.9 31.9 0 01637.3 8.48a35.48 35.48 0 0117-4.11c5.02 0 9.7.95 14.05 2.86a32.08 32.08 0 0111.28 7.79l-7.96 7.78a20.87 20.87 0 00-7.61-5.73 23.07 23.07 0 00-9.76-2.05c-4.11 0-7.87.9-11.27 2.68a19.7 19.7 0 00-7.97 7.52 21.84 21.84 0 00-2.95 11.46c0 4.35.98 8.17 2.95 11.45a20.34 20.34 0 007.97 7.6 24.5 24.5 0 0011.27 2.6c3.52 0 6.78-.68 9.76-2.05a20.87 20.87 0 007.6-5.73l7.97 7.78zm54.35-16.82h-29.44V68h-11.55V5.35h11.55v25.5h29.44V5.36h11.55V68h-11.55V41.5z" fill="#0B0B45"/></svg>